<mxfile host="app.diagrams.net" agent="Mozilla/5.0 (Windows NT 10.0; Win64; x64) AppleWebKit/537.36 (KHTML, like Gecko) Chrome/129.0.0.0 Safari/537.36" version="24.7.17">
  <diagram name="Page-1" id="PDqmCaUYE3LAE2Lrzp0o">
    <mxGraphModel dx="1434" dy="780" grid="1" gridSize="10" guides="1" tooltips="1" connect="1" arrows="1" fold="1" page="1" pageScale="1" pageWidth="827" pageHeight="1169" math="0" shadow="0">
      <root>
        <mxCell id="0" />
        <mxCell id="1" parent="0" />
        <mxCell id="WvCduQj7uTjrUx2LnM-H-1" value="External Entity: Player" style="whiteSpace=wrap;strokeWidth=2;" vertex="1" parent="1">
          <mxGeometry x="319" y="20" width="223" height="49" as="geometry" />
        </mxCell>
        <mxCell id="WvCduQj7uTjrUx2LnM-H-2" value="External Entity: Networking" style="whiteSpace=wrap;strokeWidth=2;" vertex="1" parent="1">
          <mxGeometry x="592" y="20" width="259" height="49" as="geometry" />
        </mxCell>
        <mxCell id="WvCduQj7uTjrUx2LnM-H-3" value="Process: Player Input Handling" style="whiteSpace=wrap;strokeWidth=2;" vertex="1" parent="1">
          <mxGeometry x="325" y="142" width="211" height="67" as="geometry" />
        </mxCell>
        <mxCell id="WvCduQj7uTjrUx2LnM-H-4" value="Process: Game Logic" style="whiteSpace=wrap;strokeWidth=2;" vertex="1" parent="1">
          <mxGeometry x="327" y="282" width="207" height="49" as="geometry" />
        </mxCell>
        <mxCell id="WvCduQj7uTjrUx2LnM-H-5" value="Process: Handles Networking" style="whiteSpace=wrap;strokeWidth=2;" vertex="1" parent="1">
          <mxGeometry x="631" y="142" width="180" height="67" as="geometry" />
        </mxCell>
        <mxCell id="WvCduQj7uTjrUx2LnM-H-6" value="Process: Handles Audio" style="whiteSpace=wrap;strokeWidth=2;" vertex="1" parent="1">
          <mxGeometry x="28" y="404" width="224" height="49" as="geometry" />
        </mxCell>
        <mxCell id="WvCduQj7uTjrUx2LnM-H-7" value="Process: Handles Rendering" style="whiteSpace=wrap;strokeWidth=2;" vertex="1" parent="1">
          <mxGeometry x="303" y="404" width="256" height="49" as="geometry" />
        </mxCell>
        <mxCell id="WvCduQj7uTjrUx2LnM-H-8" value="Data Store: Game Data" style="whiteSpace=wrap;strokeWidth=2;" vertex="1" parent="1">
          <mxGeometry x="608" y="404" width="226" height="49" as="geometry" />
        </mxCell>
        <mxCell id="WvCduQj7uTjrUx2LnM-H-9" value="Data Store: Audio Output" style="whiteSpace=wrap;strokeWidth=2;" vertex="1" parent="1">
          <mxGeometry x="20" y="534" width="241" height="49" as="geometry" />
        </mxCell>
        <mxCell id="WvCduQj7uTjrUx2LnM-H-10" value="Data Store: Rendered Frames" style="whiteSpace=wrap;strokeWidth=2;" vertex="1" parent="1">
          <mxGeometry x="324" y="526" width="214" height="67" as="geometry" />
        </mxCell>
        <mxCell id="WvCduQj7uTjrUx2LnM-H-11" value="Data Store: Network Data" style="whiteSpace=wrap;strokeWidth=2;" vertex="1" parent="1">
          <mxGeometry x="599" y="282" width="245" height="49" as="geometry" />
        </mxCell>
        <mxCell id="WvCduQj7uTjrUx2LnM-H-12" value="Provides Input" style="curved=1;startArrow=none;endArrow=block;exitX=0.5;exitY=1;entryX=0.5;entryY=0;rounded=0;" edge="1" parent="1" source="WvCduQj7uTjrUx2LnM-H-1" target="WvCduQj7uTjrUx2LnM-H-3">
          <mxGeometry relative="1" as="geometry">
            <Array as="points" />
          </mxGeometry>
        </mxCell>
        <mxCell id="WvCduQj7uTjrUx2LnM-H-13" value="Processed Input" style="curved=1;startArrow=none;endArrow=block;exitX=0.5;exitY=0.99;entryX=0.5;entryY=-0.01;rounded=0;" edge="1" parent="1" source="WvCduQj7uTjrUx2LnM-H-3" target="WvCduQj7uTjrUx2LnM-H-4">
          <mxGeometry relative="1" as="geometry">
            <Array as="points" />
          </mxGeometry>
        </mxCell>
        <mxCell id="WvCduQj7uTjrUx2LnM-H-14" value="Updated Game Data" style="curved=1;startArrow=none;endArrow=block;exitX=1;exitY=0.93;entryX=0.5;entryY=-0.01;rounded=0;" edge="1" parent="1" source="WvCduQj7uTjrUx2LnM-H-4" target="WvCduQj7uTjrUx2LnM-H-8">
          <mxGeometry relative="1" as="geometry">
            <Array as="points">
              <mxPoint x="721" y="367" />
            </Array>
          </mxGeometry>
        </mxCell>
        <mxCell id="WvCduQj7uTjrUx2LnM-H-15" value="Audio Commands" style="curved=1;startArrow=none;endArrow=block;exitX=0;exitY=0.94;entryX=0.5;entryY=-0.01;rounded=0;" edge="1" parent="1" source="WvCduQj7uTjrUx2LnM-H-4" target="WvCduQj7uTjrUx2LnM-H-6">
          <mxGeometry relative="1" as="geometry">
            <Array as="points">
              <mxPoint x="140" y="367" />
            </Array>
          </mxGeometry>
        </mxCell>
        <mxCell id="WvCduQj7uTjrUx2LnM-H-16" value="Audio Data" style="curved=1;startArrow=none;endArrow=block;exitX=0.5;exitY=0.99;entryX=0.5;entryY=0.01;rounded=0;" edge="1" parent="1" source="WvCduQj7uTjrUx2LnM-H-6" target="WvCduQj7uTjrUx2LnM-H-9">
          <mxGeometry relative="1" as="geometry">
            <Array as="points" />
          </mxGeometry>
        </mxCell>
        <mxCell id="WvCduQj7uTjrUx2LnM-H-17" value="Render Commands" style="curved=1;startArrow=none;endArrow=block;exitX=0.5;exitY=0.99;entryX=0.5;entryY=-0.01;rounded=0;" edge="1" parent="1" source="WvCduQj7uTjrUx2LnM-H-4" target="WvCduQj7uTjrUx2LnM-H-7">
          <mxGeometry relative="1" as="geometry">
            <Array as="points">
              <mxPoint x="430" y="367" />
            </Array>
          </mxGeometry>
        </mxCell>
        <mxCell id="WvCduQj7uTjrUx2LnM-H-18" value="Rendered Frames" style="curved=1;startArrow=none;endArrow=block;exitX=0.5;exitY=0.99;entryX=0.5;entryY=-0.01;rounded=0;" edge="1" parent="1" source="WvCduQj7uTjrUx2LnM-H-7" target="WvCduQj7uTjrUx2LnM-H-10">
          <mxGeometry relative="1" as="geometry">
            <Array as="points" />
          </mxGeometry>
        </mxCell>
        <mxCell id="WvCduQj7uTjrUx2LnM-H-19" value="Network Messages" style="curved=1;startArrow=none;endArrow=block;exitX=0.5;exitY=1;entryX=0.5;entryY=0;rounded=0;" edge="1" parent="1" source="WvCduQj7uTjrUx2LnM-H-2" target="WvCduQj7uTjrUx2LnM-H-5">
          <mxGeometry relative="1" as="geometry">
            <Array as="points" />
          </mxGeometry>
        </mxCell>
        <mxCell id="WvCduQj7uTjrUx2LnM-H-20" value="Network Data" style="curved=1;startArrow=none;endArrow=block;exitX=0.5;exitY=0.99;entryX=0.5;entryY=-0.01;rounded=0;" edge="1" parent="1" source="WvCduQj7uTjrUx2LnM-H-5" target="WvCduQj7uTjrUx2LnM-H-11">
          <mxGeometry relative="1" as="geometry">
            <Array as="points" />
          </mxGeometry>
        </mxCell>
      </root>
    </mxGraphModel>
  </diagram>
</mxfile>
